<?xml version="1.0" encoding="UTF-8" standalone="no"?>

<svg
   version="1.1"
   width="612"
   height="612"
   id="svg6"
   sodipodi:docname="logo_simple.svg"
   xml:space="preserve"
   inkscape:version="1.2.2 (b0a8486541, 2022-12-01)"
   xmlns:inkscape="http://www.inkscape.org/namespaces/inkscape"
   xmlns:sodipodi="http://sodipodi.sourceforge.net/DTD/sodipodi-0.dtd"
   xmlns="http://www.w3.org/2000/svg"
   xmlns:svg="http://www.w3.org/2000/svg"><defs
     id="defs10" /><sodipodi:namedview
     id="namedview8"
     pagecolor="#ffffff"
     bordercolor="#000000"
     borderopacity="0.25"
     inkscape:showpageshadow="2"
     inkscape:pageopacity="0.0"
     inkscape:pagecheckerboard="0"
     inkscape:deskcolor="#d1d1d1"
     showgrid="false"
     inkscape:zoom="0.54535033"
     inkscape:cx="427.2483"
     inkscape:cy="378.65568"
     inkscape:window-width="768"
     inkscape:window-height="891"
     inkscape:window-x="20"
     inkscape:window-y="20"
     inkscape:window-maximized="0"
     inkscape:current-layer="svg6" /><!-- Block --><path
     d="m376 0c0 1.08 0 2.16 0 3.3 0 38.76-31.42 70.17-70.17 70.17-38.76 0-70.17-31.42-70.17-70.17l0 0c0-1.14 0-2.22 0-3.3L0 0l0 612 612 0 0-612z"
     fill="#654ff0"
     id="path2" /><!-- Letters --><g
     transform="matrix(0.08825472,0,0,-0.08825472,31.090882,611.3022)"
     fill="#000000"
     stroke="none"
     id="g56"
     style="fill:#ffffff"><path
       d="m 3595,5746 c 17,-9 78,-37 137,-64 116,-54 232,-128 319,-204 71,-62 75,-76 88,-323 15,-277 36,-369 93,-416 l 32,-27 -32,-30 c -54,-50 -119,-77 -187,-77 -58,0 -74,8 -455,199 -452,227 -426,219 -563,152 -203,-101 -309,-219 -363,-406 -26,-89 -26,-358 -1,-475 23,-105 34,-113 25,-17 -12,132 -9,343 6,413 23,105 68,183 160,275 113,112 240,184 326,184 37,0 67,-13 425,-185 375,-180 451,-211 493,-201 15,4 103,43 195,88 191,92 236,102 291,69 39,-25 98,-100 121,-155 51,-122 73,-320 100,-901 24,-529 40,-659 83,-709 29,-32 75,-46 114,-35 44,11 110,81 163,169 38,64 39,67 40,165 0,118 -9,142 -128,323 -47,71 -82,137 -95,180 -12,37 -47,209 -77,382 -78,439 -109,580 -156,716 -122,356 -338,670 -523,759 -104,50 -480,149 -610,161 -51,5 -51,5 -21,-10 z"
       id="path12"
       style="fill:#ffffff" /><path
       d="M 2610,5721 C 2249,5644 2007,5518 1774,5286 1435,4946 1284,4640 1041,3801 958,3515 939,3409 941,3252 l 1,-118 -40,-58 c -23,-32 -56,-92 -74,-134 -30,-71 -32,-85 -33,-187 0,-99 3,-116 27,-168 36,-76 108,-145 200,-190 175,-87 304,-49 373,107 40,90 61,235 33,223 -120,-51 -224,-87 -252,-87 -110,0 -190,100 -190,240 0,75 36,140 131,231 40,39 72,73 71,74 -2,1 -23,13 -48,27 -98,57 -154,148 -153,253 0,82 28,134 101,188 111,82 401,218 665,312 60,22 76,31 72,44 -62,197 -135,466 -145,533 -39,279 105,582 418,879 152,145 232,187 487,260 83,23 154,46 160,51 15,13 -42,8 -135,-11 z"
       id="path14"
       style="fill:#ffffff" /><path
       d="m 2096,3916 c -62,-126 -120,-175 -422,-356 -142,-85 -295,-179 -339,-207 l -80,-53 h 79 c 79,0 79,0 180,60 98,59 352,236 475,332 33,26 74,67 91,90 35,48 63,133 58,180 -3,31 -5,28 -42,-46 z"
       id="path16"
       style="fill:#ffffff" /><path
       d="m 1923,3920 c -65,-29 -105,-109 -69,-139 20,-17 56,0 99,49 30,32 37,48 35,72 -4,40 -13,42 -65,18 z"
       id="path18"
       style="fill:#ffffff" /><path
       d="m 4539,3780 c -105,-31 -257,-158 -312,-258 -68,-126 -57,-204 62,-414 19,-34 38,-87 47,-135 9,-51 25,-95 46,-128 59,-95 63,-106 63,-191 0,-71 -3,-85 -28,-122 -65,-99 -151,-120 -240,-59 -62,42 -111,57 -192,57 -33,0 -71,6 -85,13 -14,7 -34,16 -44,20 -16,6 -17,5 -6,-8 24,-29 68,-45 125,-45 64,0 98,-13 173,-63 29,-20 72,-42 94,-48 115,-30 258,112 258,257 0,47 -39,166 -129,389 -33,82 -58,151 -57,153 2,1 27,-12 56,-30 46,-29 64,-33 133,-37 101,-4 125,14 28,22 -39,3 -90,14 -113,25 -52,23 -111,86 -128,137 -11,34 -10,39 8,58 l 21,20 7,-27 c 13,-55 99,-86 155,-56 29,16 51,68 47,112 -4,38 -3,39 27,32 49,-10 117,-53 113,-72 -2,-9 -32,-31 -68,-49 -79,-38 -59,-43 31,-7 95,38 100,46 59,90 -52,54 -111,77 -196,77 -78,-1 -114,-15 -162,-63 -30,-30 -62,-40 -62,-19 0,21 62,68 118,89 49,19 71,21 157,16 55,-3 115,-8 133,-12 52,-10 38,13 -17,30 -137,41 -241,26 -355,-49 l -29,-19 17,32 c 43,83 119,137 233,167 90,24 155,20 183,-10 12,-13 27,-22 31,-19 12,7 11,91 -1,114 -19,35 -130,52 -201,30 z m -89,-375 c 0,-16 -34,-38 -44,-28 -10,10 -7,20 10,37 17,18 34,13 34,-9 z"
       id="path20"
       style="fill:#ffffff" /><path
       d="m 3255,3757 c -105,-28 -189,-88 -224,-161 -32,-64 -26,-72 27,-32 71,54 142,93 194,107 43,12 53,10 159,-24 63,-20 154,-41 204,-47 110,-12 295,-13 295,-1 0,21 -99,99 -146,114 -133,44 -417,68 -509,44 z"
       id="path22"
       style="fill:#ffffff" /><path
       d="m 2246,3540 c -48,-58 -46,-146 6,-164 39,-14 58,-2 58,37 0,18 7,55 16,80 20,58 14,77 -25,77 -20,0 -37,-9 -55,-30 z"
       id="path24"
       style="fill:#ffffff" /><path
       d="m 2455,3504 c -46,-79 -142,-165 -270,-244 -66,-40 -192,-122 -280,-181 -88,-59 -209,-137 -270,-173 l -110,-66 h 64 c 58,0 73,5 160,52 53,28 166,94 251,146 356,219 466,306 489,388 13,47 14,124 2,124 -5,0 -21,-21 -36,-46 z"
       id="path26"
       style="fill:#ffffff" /><path
       d="m 3362,3534 c -89,-23 -172,-77 -172,-111 0,-20 14,-16 39,11 12,13 49,36 81,50 143,65 248,51 431,-54 85,-49 137,-62 183,-44 33,13 14,24 -40,24 -50,0 -65,6 -147,55 -50,31 -114,62 -141,70 -62,19 -164,18 -234,-1 z"
       id="path28"
       style="fill:#ffffff" /><path
       d="m 3325,3445 c -22,-8 -41,-15 -42,-15 -1,0 -26,-19 -55,-43 -29,-24 -61,-46 -71,-50 -17,-6 -15,-27 2,-27 5,0 33,16 62,37 50,34 54,35 64,17 5,-10 26,-36 46,-56 43,-44 90,-51 131,-18 30,23 58,78 58,113 0,25 0,25 45,12 66,-20 128,-50 143,-68 11,-13 10,-18 -10,-31 -13,-8 -52,-22 -88,-31 -69,-18 -100,-35 -62,-35 12,0 65,11 118,25 53,14 107,25 120,25 64,0 21,44 -96,98 -47,22 -106,44 -132,51 -64,15 -185,13 -233,-4 z m 103,-63 c 3,-18 -1,-22 -22,-22 -19,0 -26,5 -26,18 0,39 43,43 48,4 z"
       id="path30"
       style="fill:#ffffff" /><path
       d="m 3755,3193 c -27,-24 -95,-67 -150,-95 -55,-28 -86,-48 -70,-45 54,10 142,47 183,77 39,28 99,97 91,104 -2,2 -26,-16 -54,-41 z"
       id="path32"
       style="fill:#ffffff" /><path
       d="m 1205,3137 c -80,-83 -135,-246 -106,-320 24,-61 147,-75 199,-23 25,24 26,28 13,58 -78,194 -81,257 -12,315 l 26,22 -34,1 c -29,0 -43,-9 -86,-53 z"
       id="path34"
       style="fill:#ffffff" /><path
       d="m 1917,2855 c 19,-35 57,-63 101,-75 23,-6 47,-8 53,-4 6,3 41,-26 79,-65 74,-77 113,-97 56,-28 -20,23 -46,55 -59,71 -20,25 -34,30 -86,37 -45,5 -70,14 -89,31 -15,13 -36,31 -46,39 -18,13 -18,13 -9,-6 z"
       id="path36"
       style="fill:#ffffff" /><path
       d="m 1870,2832 c 0,-7 11,-35 25,-62 14,-27 37,-84 51,-127 35,-101 36,-223 5,-368 -44,-204 -82,-398 -77,-402 2,-3 48,-1 100,4 53,5 96,8 96,7 0,-1 -16,-25 -35,-54 -52,-77 -49,-109 23,-208 99,-139 284,-322 446,-444 289,-217 983,-543 1359,-639 85,-21 281,-29 298,-12 12,12 -8,64 -94,244 -42,88 -77,145 -97,162 -34,29 -72,42 -265,88 -370,88 -770,312 -1191,665 -300,252 -386,385 -344,536 6,21 15,40 20,43 5,3 22,-18 37,-47 23,-45 28,-50 31,-29 2,13 -1,52 -7,87 -7,35 -14,106 -18,159 -6,93 -7,95 -31,95 -18,0 -62,39 -178,158 -84,86 -153,151 -154,144 z"
       id="path38"
       style="fill:#ffffff" /><path
       d="m 2355,2657 c 0,-81 -10,-101 -60,-123 l -30,-13 48,-1 c 34,0 53,-6 68,-21 12,-12 62,-104 111,-206 50,-101 92,-183 94,-181 2,2 -21,64 -51,138 -30,74 -80,213 -112,307 -32,95 -60,173 -63,173 -3,0 -5,-33 -5,-73 z"
       id="path40"
       style="fill:#ffffff" /><path
       d="m 4187,2324 c -18,-39 -18,-42 -1,-80 l 18,-39 4,43 c 2,23 2,59 0,80 l -3,37 z"
       id="path42"
       style="fill:#ffffff" /><path
       d="m 4425,2210 c -11,-5 -52,-9 -92,-9 -61,-1 -76,-5 -101,-26 -36,-30 -42,-31 -84,-5 -41,25 -129,27 -184,4 -27,-11 -54,-14 -89,-10 -166,19 -158,19 -188,-4 -33,-26 -30,-36 6,-19 22,10 36,8 89,-12 50,-19 83,-24 158,-24 77,-1 104,-5 142,-23 26,-12 59,-22 73,-22 37,0 86,23 114,53 25,27 57,40 126,52 42,7 95,34 95,47 0,10 -39,9 -65,-2 z"
       id="path44"
       style="fill:#ffffff" /><path
       d="m 2698,1943 c 43,-54 184,-190 271,-261 122,-101 337,-201 581,-269 106,-29 147,-35 265,-40 241,-10 359,23 466,129 61,61 157,197 190,272 23,52 18,74 -8,36 -36,-51 -146,-171 -210,-229 -50,-45 -83,-66 -128,-81 -173,-56 -371,-52 -633,15 -300,75 -519,194 -734,395 -84,78 -105,89 -60,33 z"
       id="path46"
       style="fill:#ffffff" /><path
       d="m 4109,1881 c -27,-28 -39,-61 -21,-61 19,0 85,67 78,78 -11,19 -25,14 -57,-17 z"
       id="path48"
       style="fill:#ffffff" /><path
       d="m 4200,1315 c -6,-8 -27,-89 -46,-181 l -34,-167 77,-81 c 171,-179 264,-256 310,-256 31,0 156,66 187,99 l 29,31 -26,67 c -41,102 -147,306 -191,366 -21,30 -54,64 -72,76 -62,43 -212,72 -234,46 z"
       id="path50"
       style="fill:#ffffff" /><path
       d="m 4378,594 c -16,-8 -28,-19 -28,-24 0,-5 34,-14 74,-21 90,-14 127,-35 157,-87 31,-53 42,-59 140,-73 147,-20 215,-11 258,35 30,32 15,38 -53,25 -64,-13 -80,-6 -89,40 -11,55 -41,71 -133,71 -63,0 -97,6 -148,25 -75,28 -138,31 -178,9 z"
       id="path52"
       style="fill:#ffffff" /><path
       d="m 4236,538 c -55,-36 -86,-80 -86,-121 0,-70 65,-147 142,-168 61,-16 174,-7 224,19 43,22 71,49 61,58 -3,3 -71,9 -151,13 -159,8 -179,16 -191,70 -8,36 6,68 44,109 28,29 34,52 12,52 -4,0 -29,-14 -55,-32 z"
       id="path54"
       style="fill:#ffffff" /></g></svg>
